<?xml version="1.0" standalone="no"?>
<!DOCTYPE svg PUBLIC "-//W3C//DTD SVG 20010904//EN"
 "http://www.w3.org/TR/2001/REC-SVG-20010904/DTD/svg10.dtd">
<svg version="1.0" xmlns="http://www.w3.org/2000/svg"
 width="294.000000pt" height="293.000000pt" viewBox="0 0 294.000000 293.000000"
 preserveAspectRatio="xMidYMid meet">

<g transform="translate(0.000000,293.000000) scale(0.100000,-0.100000)"
fill="#000000" stroke="none">
<path d="M1231 2873 c-25 -23 -36 -53 -71 -179 l-42 -152 -56 -21 -57 -20
-145 95 c-125 83 -148 95 -175 90 -22 -5 -78 -55 -207 -184 -217 -216 -211
-192 -103 -380 41 -72 75 -136 75 -142 0 -20 -42 -108 -53 -113 -7 -2 -79 -17
-162 -33 -130 -24 -154 -32 -177 -55 l-28 -27 0 -251 c0 -301 -6 -287 135
-327 50 -14 120 -34 156 -45 l66 -19 22 -57 22 -57 -90 -132 c-100 -147 -106
-160 -91 -198 10 -27 250 -275 330 -341 56 -47 77 -44 191 23 46 27 107 61
134 76 l51 27 55 -26 56 -25 28 -143 c31 -161 45 -201 73 -216 13 -7 111 -11
270 -11 231 0 251 1 274 19 19 15 33 53 68 176 44 155 44 156 79 171 78 33 79
32 225 -65 100 -68 144 -91 168 -91 28 0 53 21 210 177 136 136 179 185 184
209 5 27 -7 54 -76 179 l-83 146 24 51 c14 29 33 54 46 59 13 5 83 20 156 33
156 29 161 31 181 61 13 20 16 65 16 274 0 245 0 250 -22 275 -18 19 -59 35
-178 68 l-154 44 -22 56 -22 56 94 142 c52 78 94 151 94 161 0 39 -31 76 -195
237 -160 156 -177 168 -227 163 -10 -1 -78 -36 -153 -78 l-135 -76 -57 25 -56
24 -33 164 c-25 122 -38 169 -54 184 -20 20 -33 21 -275 24 l-254 3 -30 -28z
m423 -170 c3 -10 17 -76 31 -147 14 -72 27 -132 29 -134 3 -2 40 -16 84 -31
44 -15 109 -44 145 -64 36 -21 71 -37 79 -37 7 0 67 32 132 70 87 50 124 67
135 60 9 -5 58 -51 108 -102 l93 -93 -85 -127 -85 -127 34 -68 c36 -74 59
-135 76 -200 l11 -43 87 -26 c48 -14 94 -27 102 -29 8 -2 34 -9 58 -15 l42
-11 0 -144 c0 -81 -4 -146 -10 -150 -5 -3 -69 -17 -142 -31 -73 -14 -138 -31
-144 -37 -6 -7 -16 -32 -23 -57 -7 -25 -35 -91 -63 -146 l-50 -102 72 -127 73
-127 -105 -105 -105 -104 -125 84 -126 85 -79 -38 c-43 -21 -111 -48 -152 -59
-41 -12 -78 -24 -82 -28 -3 -5 -24 -70 -45 -145 l-38 -138 -147 0 -147 0 -15
73 c-9 39 -21 99 -27 132 -18 94 -17 93 -76 110 -30 9 -99 38 -154 66 l-99 51
-125 -71 c-68 -39 -128 -71 -133 -71 -5 0 -53 45 -107 99 -64 64 -97 104 -93
114 3 8 40 64 81 125 42 61 76 114 76 119 -1 4 -18 44 -40 88 -22 44 -48 111
-57 148 -10 38 -25 73 -33 77 -8 4 -60 20 -115 35 -55 14 -115 31 -133 37
l-33 10 3 146 3 147 144 27 c79 15 147 31 151 35 3 4 15 35 25 68 11 33 39 97
62 143 24 46 43 88 43 94 0 10 -91 178 -127 234 -13 20 -7 28 88 123 56 55
106 101 111 101 5 0 63 -36 129 -81 l120 -80 84 40 c46 23 113 49 150 59 43
11 72 24 80 37 7 11 27 72 44 135 18 63 34 121 36 128 3 9 42 12 149 12 129 0
145 -2 150 -17z"/>
<path d="M1330 2074 c-178 -38 -346 -173 -426 -343 -148 -310 -22 -671 288
-827 88 -44 172 -64 279 -64 474 -1 775 492 557 912 -129 250 -417 383 -698
322z m246 -179 c172 -40 306 -187 337 -370 22 -127 -21 -259 -118 -363 -214
-231 -596 -170 -726 115 -155 339 144 704 507 618z"/>
</g>
</svg>
